<?xml version="1.0" standalone="no"?><!-- Generator: Gravit.io --><svg xmlns="http://www.w3.org/2000/svg" xmlns:xlink="http://www.w3.org/1999/xlink" style="isolation:isolate" viewBox="0 0 75 75" width="75" height="75"><defs><clipPath id="_clipPath_Seb8sk2J5aBeEk00m1JQHUdVL170lpgY"><rect width="75" height="75"/></clipPath></defs><g clip-path="url(#_clipPath_Seb8sk2J5aBeEk00m1JQHUdVL170lpgY)"><rect width="75" height="75" style="fill:rgb(0,0,0)" fill-opacity="0"/><g><path d=" M 46.324 66.892 C 46.324 71.372 42.375 75 37.5 75 C 32.625 75 28.676 71.372 28.676 66.892 C 28.676 62.414 32.627 58.784 37.5 58.784 C 42.373 58.784 46.324 62.414 46.324 66.892 Z  M 41.912 12.162 C 41.912 14.401 39.937 16.216 37.5 16.216 C 35.063 16.216 33.088 14.401 33.088 12.162 L 33.088 4.054 C 33.088 1.815 35.063 0 37.5 0 C 39.937 0 41.912 1.815 41.912 4.054 L 41.912 12.162 Z " fill="rgb(219,133,9)"/><path d=" M 46.074 68.736 C 46.22 68.143 46.324 67.526 46.324 66.892 C 46.324 66.116 46.169 65.38 45.944 64.666 C 40.318 64.931 34.682 64.931 29.056 64.666 C 28.815 65.388 28.688 66.137 28.676 66.892 C 28.676 67.526 28.78 68.143 28.926 68.736 C 32.175 68.878 35.131 68.919 37.5 68.919 C 39.869 68.919 42.825 68.878 46.074 68.736 Z " fill="rgb(188,111,10)"/><path d=" M 57.353 56.757 L 57.353 23.919 C 57.353 13.843 48.464 5.676 37.5 5.676 C 26.536 5.676 17.647 13.843 17.647 23.919 L 17.647 56.757 L 57.353 56.757 Z " fill="rgb(255,193,7)"/><path d=" M 75 56.757 C 75 61.236 59.429 64.865 37.5 64.865 C 15.571 64.865 0 61.236 0 56.757 C 0 52.277 15.571 48.649 37.5 48.649 C 59.429 48.649 75 52.277 75 56.757 Z " fill="rgb(255,193,7)"/><path d=" M 0 56.757 C 0 52.703 17.647 38.514 17.647 32.432 C 17.647 26.351 57.353 26.351 57.353 32.432 C 57.353 38.514 75 52.703 75 56.757 C 75 60.811 0 60.811 0 56.757 Z " fill="rgb(255,193,7)"/><path d=" M 5.014 49.512 C 4.027 50.599 3.076 51.713 2.162 52.853 C 5.74 54.182 20.137 59.061 38.698 59.061 C 49.167 59.061 60.955 57.476 72.838 52.845 C 71.93 51.719 70.987 50.618 70.01 49.543 C 41.25 60.249 12.574 52.054 5.014 49.512 Z " fill="rgb(255,224,130)"/></g></g></svg>