<svg height="480pt" viewBox="0 0 480 480" width="480pt" xmlns="http://www.w3.org/2000/svg" xmlns:xlink="http://www.w3.org/1999/xlink"><linearGradient id="a"><stop offset="0" stop-color="#006df0"/><stop offset="1" stop-color="#00e7f0"/></linearGradient><linearGradient id="b" gradientUnits="userSpaceOnUse" x1="240" x2="240" xlink:href="#a" y1="492.144" y2="-76.456"/><linearGradient id="c" gradientUnits="userSpaceOnUse" x1="416" x2="416" xlink:href="#a" y1="492.144" y2="-76.456"/><path d="m479.742188 238.734375c.019531-.285156.019531-.574219 0-.863281l-60.789063-220.269532c-2.898437-10.390624-12.351563-17.5820308-23.136719-17.601562h-311.632812c-10.785156.0195312-20.238282 7.210938-23.136719 17.601562l-60.800781 220.253907c-.015625.289062-.015625.578125 0 .863281-.117188.417969-.2031252.847656-.246094 1.28125v200c.0273438 22.082031 17.917969 39.972656 40 40h400c22.082031-.027344 39.972656-17.917969 40-40v-200c-.046875-.429688-.132812-.851562-.257812-1.265625zm-403.269532-216.863281c.957032-3.46875 4.113282-5.871094 7.710938-5.871094h311.632812c3.597656 0 6.753906 2.402344 7.710938 5.871094l57.96875 210.128906h-101.496094c-13.253906 0-24 10.746094-24 24v16c0 13.253906-10.746094 24-24 24h-144c-13.253906 0-24-10.746094-24-24v-16c0-13.253906-10.746094-24-24-24h-101.496094zm387.527344 418.128906c0 13.253906-10.746094 24-24 24h-400c-13.253906 0-24-10.746094-24-24v-192h104c4.417969 0 8 3.582031 8 8v16c.027344 22.082031 17.917969 39.972656 40 40h144c22.082031-.027344 39.972656-17.917969 40-40v-16c0-4.417969 3.582031-8 8-8h104zm0 0" fill="url(#b)"/><path d="m304 328h-128c-13.253906 0-24 10.746094-24 24s10.746094 24 24 24h128c13.253906 0 24-10.746094 24-24s-10.746094-24-24-24zm0 32h-128c-4.417969 0-8-3.582031-8-8s3.582031-8 8-8h128c4.417969 0 8 3.582031 8 8s-3.582031 8-8 8zm0 0" fill="url(#b)"/><path d="m392 448h32c13.253906 0 24-10.746094 24-24v-32c0-4.417969-3.582031-8-8-8s-8 3.582031-8 8v32c0 4.417969-3.582031 8-8 8h-32c-4.417969 0-8 3.582031-8 8s3.582031 8 8 8zm0 0" fill="url(#c)"/></svg>