<?xml version="1.0" standalone="no"?><!-- Generator: Gravit.io --><svg xmlns="http://www.w3.org/2000/svg" xmlns:xlink="http://www.w3.org/1999/xlink" style="isolation:isolate" viewBox="0 0 840 450" width="840" height="450"><defs><clipPath id="_clipPath_LOchUqOyNbLLHeg6WrL0Owyk522ronrB"><rect width="840" height="450"/></clipPath></defs><g clip-path="url(#_clipPath_LOchUqOyNbLLHeg6WrL0Owyk522ronrB)"><rect width="840" height="450" style="fill:rgb(0,0,0)" fill-opacity="0"/><g><path d="M 10 0 L 830 0 C 835.519 0 840 4.481 840 10 L 840 440 C 840 445.519 835.519 450 830 450 L 10 450 C 4.481 450 0 445.519 0 440 L 0 10 C 0 4.481 4.481 0 10 0 Z" style="stroke:none;fill:#000000;stroke-miterlimit:10;"/><circle vector-effect="non-scaling-stroke" cx="32.00000000000023" cy="21.999999999999844" r="10" fill="rgb(255,0,0)"/><circle vector-effect="non-scaling-stroke" cx="60.00000000000021" cy="21.999999999999844" r="10" fill="rgb(255,153,0)"/><circle vector-effect="non-scaling-stroke" cx="90.00000000000021" cy="21.999999999999844" r="10" fill="rgb(0,255,0)"/></g><rect x="263" y="91" width="10" height="27.236" transform="matrix(1,0,0,1,0,0)" fill="rgb(235,235,235)"/><g transform="matrix(1,0,0,1,60,90)"><text transform="matrix(1,0,0,1,0,23.515)" style="font-family:'Open Sans';font-weight:400;font-size:22px;font-style:normal;fill:#ffffff;stroke:none;">Advocate-Platform:</text></g><g transform="matrix(1,0,0,1,282,90)"><text transform="matrix(1,0,0,1,0,23.515)" style="font-family:'Open Sans';font-weight:400;font-size:22px;font-style:normal;fill:#ffffff;stroke:none;">Initializing protection ...</text></g></g></svg>