<svg height="512pt" viewBox="0 0 512 512" width="512pt" xmlns="http://www.w3.org/2000/svg"><path d="m512 117.816406-60.808594 60.808594-40.203125 40.214844-21.238281 21.226562-50.3125 50.3125-117.816406-117.828125 50.3125-50.300781 61.441406-61.441406 21.226562-21.234375 39.570313-39.574219 48.300781 48.289062zm0 0" fill="#4b5be4"/><path d="m402.902344 130.328125-40.214844 40.210937 48.300781 48.300782-21.238281 21.226562-48.300781-48.289062-43.90625 43.90625-21.226563-21.238282 43.90625-43.90625-48.289062-48.289062 21.226562-21.226562 48.289063 48.289062 40.214843-40.214844-48.289062-48.289062 21.226562-21.234375 48.300782 48.296875 39.570312-39.582032 21.226563 21.226563-39.570313 39.582031 48.289063 48.300782-21.226563 21.226562zm0 0" fill="#55f9ff"/><path d="m290.378906 339.4375-49.730468 49.742188-61.820313 61.820312-21.238281 21.226562-39.773438 39.773438-117.816406-117.816406 39.773438-39.78125 21.226562-21.230469 40.59375-40.582031 21.226562-21.238282 49.730469-49.730468zm0 0" fill="#0087ff"/><path d="m171.121094 362.105469-40.59375 40.59375 48.300781 48.300781-21.238281 21.226562-48.289063-48.296874-39.773437 39.78125-21.238282-21.238282 39.773438-39.773437-48.289062-48.296875 21.226562-21.230469 48.300781 48.300781 40.582031-40.59375-48.289062-48.289062 21.226562-21.238282 48.300782 48.300782 44.253906-44.527344 21.238281 21.226562-44.265625 44.527344 48.300782 48.300782-21.226563 21.226562zm0 0" fill="#9afbff"/><path d="m410.085938 339.796875-35.296876 35.300781-34.992187 34.988282-31.605469-31.59375-21.226562-21.238282-146.800782-146.792968 70.296876-70.296876 168.03125 168.027344zm0 0" fill="#ff623f"/><path d="m142.757812 121.53125-10.667968 10.667969-10.570313 10.558593-36.050781-36.050781 10.578125-10.578125 10.660156-10.648437zm0 0" fill="#ff623f"/><path d="m106.707031 85.480469 36.050781 36.050781-10.667968 10.667969-36.042969-36.070313zm0 0" fill="#e30020"/><path d="m410.085938 339.796875-35.296876 35.300781-199.546874-199.714844 35.21875-35.21875 168.03125 168.027344zm0 0" fill="#e30020"/><path d="m378.492188 308.191406-70.300782 70.300782-21.226562-21.238282 35.019531-35.007812 35.277344-35.28125zm0 0" fill="#e1e1e3"/><path d="m224.433594 136.34375c0 23.527344-9.15625 45.65625-25.800782 62.289062-.03125.03125-.050781.050782-.078124.082032-17.164063 17.121094-39.683594 25.6875-62.222657 25.6875-22.558593 0-45.117187-8.59375-62.292969-25.769532l-22.167968-22.207031 62.234375-62.230469 62.339843-62.34375 22.207032 22.210938c16.625 16.621094 25.78125 38.738281 25.78125 62.28125zm0 0" fill="#0087ff"/><path d="m198.652344 74.0625c16.625 16.621094 25.78125 38.738281 25.78125 62.28125 0 23.527344-9.15625 45.65625-25.800782 62.289062-.03125.03125-.050781.050782-.078124.082032l-84.449219-84.519532 62.339843-62.34375zm0 0" fill="#4b5be4"/><path d="m378.492188 308.191406-35.289063 35.289063-21.21875-21.234375 35.277344-35.28125zm0 0" fill="#c8c6cd"/></svg>